<?xml version="1.0" encoding="utf-8"?>
<!-- Generator: Adobe Illustrator 23.0.0, SVG Export Plug-In . SVG Version: 6.00 Build 0)  -->
<svg version="1.1" id="Camada_1" xmlns="http://www.w3.org/2000/svg" xmlns:xlink="http://www.w3.org/1999/xlink" x="0px" y="0px"
	 viewBox="0 0 200 130" style="enable-background:new 0 0 200 130;" xml:space="preserve">
<style type="text/css">
	.st0{fill:#1B8974;}
	.st1{fill:#156B5A;}
	.st2{fill:#96DAE7;}
	.st3{fill:none;stroke:#FFFFFF;stroke-width:0.9921;stroke-linecap:round;stroke-linejoin:round;}
	.st4{fill:none;stroke:#FFFFFF;stroke-width:0.9921;stroke-linecap:round;stroke-linejoin:round;stroke-dasharray:0,2.86;}
	.st5{fill:#003850;}
	.st6{fill:#DDDDDD;}
	.st7{fill:#FFFFFF;}
	.st8{fill:#A7CCD9;}
	.st9{fill:#CB9C83;}
	.st10{fill:#B58571;}
	.st11{fill:#2BB298;}
	
		.st12{fill:none;stroke:#FFFFFF;stroke-width:0.9921;stroke-linecap:round;stroke-linejoin:round;stroke-miterlimit:10;stroke-dasharray:0,2.8346;}
	.st13{fill:none;stroke:#FFFFFF;stroke-width:0.3076;stroke-miterlimit:10;}
	.st14{fill:none;stroke:#FFFFFF;stroke-width:0.2835;stroke-miterlimit:10;}
</style>
<rect y="93.9" class="st0" width="200" height="36.1"/>
<polygon class="st1" points="148.3,95 200,130 42.6,130 "/>
<rect y="0" class="st2" width="200" height="93.9"/>
<g>
	<g>
		<line class="st3" x1="1" y1="13.4" x2="1" y2="13.4"/>
		<path class="st4" d="M3.9,13.4h126.7c3.3,0,6,2.7,6,6v16.9"/>
		<line class="st3" x1="136.6" y1="37.8" x2="136.6" y2="37.8"/>
	</g>
</g>
<path class="st5" d="M157.7,124.6h-111c-1.5,0-2.7-1.2-2.7-2.7l0.4-0.9l115.9,0.9l0,0C160.4,123.4,159.2,124.6,157.7,124.6z"/>
<path class="st5" d="M145.8,94H59.2c-1.1,0-2-0.9-2-2V38.8c0-1.1,0.9-2,2-2h86.6c1.1,0,2,0.9,2,2V92C147.8,93.1,146.9,94,145.8,94z"
	/>
<path class="st6" d="M143.5,91H60.9c-0.6,0-1-0.4-1-1V41c0-0.6,0.4-1,1-1h82.6c0.6,0,1,0.4,1,1v49C144.5,90.5,144.1,91,143.5,91z"/>
<rect x="80.5" y="50.6" class="st7" width="56" height="33.7"/>
<rect x="67.4" y="50.6" class="st7" width="11.1" height="33.7"/>
<rect x="67.3" y="44.2" class="st5" width="69.2" height="4.3"/>
<rect x="96.8" y="63.4" class="st5" width="33.7" height="2.1"/>
<rect x="85.8" y="56" class="st0" width="44.7" height="3.8"/>
<rect x="96.8" y="68.2" class="st5" width="33.7" height="2.1"/>
<rect x="85.9" y="73.1" class="st5" width="33.7" height="2.1"/>
<rect x="85.9" y="77.9" class="st5" width="33.7" height="2.1"/>
<rect x="122.3" y="72.7" class="st0" width="7.9" height="7.3"/>
<rect x="85.8" y="63.4" class="st0" width="7.9" height="7.3"/>
<rect x="70.8" y="55" class="st5" width="4.3" height="4"/>
<rect x="70.8" y="61.4" class="st0" width="4.3" height="4"/>
<rect x="70.8" y="68.7" class="st5" width="4.3" height="4"/>
<rect x="70.8" y="75.9" class="st5" width="4.3" height="4"/>
<path class="st8" d="M146.6,94H58.3c-0.7,0-1.3,0.4-1.7,1l-12.1,25.6c-0.6,1.2,0.3,2.6,1.7,2.6h112.5c1.3,0,2.2-1.4,1.7-2.6
	L148.3,95C148,94.4,147.3,94,146.6,94z"/>
<g>
	<polygon class="st5" points="146,100.2 144.5,97.2 59.9,97.2 58.6,100.2 	"/>
	<polygon class="st5" points="58.3,100.9 56.9,103.9 147.8,103.9 146.4,100.9 	"/>
	<polygon class="st5" points="55,108 53.5,111.3 151.5,111.3 149.9,108 	"/>
	<polygon class="st5" points="149.3,107.3 148,104.5 56.3,104.5 55.1,107.3 	"/>
</g>
<path class="st5" d="M115.8,112.8H89.2c-0.4,0-0.7,0.2-0.9,0.6l-2.4,6.6c-0.2,0.6,0.2,1.2,0.9,1.2h31.4c0.6,0,1.1-0.6,0.9-1.2
	l-2.4-6.6C116.5,113.1,116.2,112.8,115.8,112.8z"/>
<path class="st9" d="M77.8,117.8c0,2-6,5.7-8.4,6.9c-3.6,1.8-5.7,4.4-8,4.5c-7.1,0.2-11.2-3-8.9-7.5c1.1-2.1,2.7-3.2,2.4-6.3
	c-0.3-3.6,1.3-9.1,3.7-9.1c5.3,0,13.4,3.6,17.2,7.5c0.2,0.3-0.4,1.9-0.2,2.2c0.4,0.5,2.6-0.2,2.9-1.5
	C78.6,114,77.8,117.3,77.8,117.8z"/>
<path class="st9" d="M149.3,119.3c1.1,5-3.6,5.4-10.7,5.4c-4.7,0-8.9-1.8-11.1-4.6c-0.3-0.4-1.1-1-2.1-1.8c-0.9-0.7-1.5-2-2.4-2.7
	c-1.6-1.3-3.2-2.6-2.9-2.8c2.7-2,7.7,2.1,7.7,1.7c0.8-4.5,4.4-6.9,10.8-8.3C151,103.4,148.2,114.1,149.3,119.3z"/>
<path class="st9" d="M54.7,110.9c0.1-0.7,0.7-2,1.5-3.3c0.6-1,0.4-2.4,1.8-2.6c1.3-0.2,1.7,0.4,2.2,0.4c1.2,0,2.2-2,2.5-1.7l2.1,2
	c0.3,0.2,0.7,0.3,1,0.3l1.5-0.4c0.5-0.1,1.7,0,2,0.4l1,0.9c0.2,0.3,0.6,0.5,1.1,0.5h2.3c0.5,0,0.9,0.3,1.2,0.7l1,2
	c0.1,0.2,0.1,0.4,0.1,0.6l-0.1,3.3c-0.2,1.5-0.7,1.2-1.6,1l-20.9,4.7C54.4,119,54.3,112.9,54.7,110.9z"/>
<path class="st9" d="M148.5,109.4l-0.5-2.2c-0.3-0.4-2-1.7-2.4-1.4c-1.6,1-3.8-1.1-5-1.3c-0.4-0.1-1.6,0.1-1.9,0.3l-0.8,0.6
	c-1.1,0.3-2-0.8-2.4-0.9c0,0-1.1-0.5-2.6,0c0,0-2.2,1.6-2.7,1.6H128c-0.5,0-0.9,0.3-1.2,0.7c0,0,1.1,5.8,0.5,6.9
	c-0.8,1.5,1.6,1.5,1.3,1.4l20.4,4.4C148.1,117.4,149.7,113,148.5,109.4z"/>
<path class="st9" d="M75.5,116c0,0,0.8-0.4,1.1-0.4c0.5,0,1.1-1.1,1.5-2.2c0.4-1.4,2.1-1.7,3.3-1.4c0.2,0.1-0.1,1.1-0.3,2.5
	c-0.1,0.8-0.6,1.6-0.9,2.4c-0.5,1-1.1,1.9-1.7,2.4c-1.5,1.1-5.1,3.7-6.4,4.1C70.7,123.6,75.5,116,75.5,116z"/>
<path class="st9" d="M78.9,104.1c-0.7-0.4-1.5-0.5-2.2-0.3c-1.2,0.3-1.7,0.6-2.3,1.4c-1.6,2-2.6,2.2-2.6,2.2l4.3,3.3l1-2.4l0.6-0.8
	c0,0,0.2-0.3,0.4-0.8C78.5,105.8,79.3,104.3,78.9,104.1z"/>
<path class="st9" d="M66.3,105.8c0.8-0.3,2.5-1.8,2.5-1.8c0.6-0.6,2.9-0.2,2.1,2.2c0,0.6-0.3,0.6,0.2,1
	C71.3,107.5,66.4,107.2,66.3,105.8z"/>
<path class="st10" d="M71.3,107.3c-0.2,0-0.5,0-0.4-0.6c0.1-0.7,0.3-1.5,0.2-1.8c0,0,0.1,0.3,0.1,0.7c0,0.4-0.2,1.3-0.1,1.5
	c0.2,0.1,0.6,0.2,0.7,0.2s0.2-0.1,0.2-0.1s0,0.1-0.2,0.1C71.6,107.3,71.4,107.3,71.3,107.3z"/>
<path class="st9" d="M61.2,105c0,0,1.5-1.7,2-1.7s2-0.3,2.1,0.6c0.1,0.9,0.1,1.3,0.1,1.6c0,0.3,0.4,0.5,0.4,0.5l-1.1-0.3
	C64.7,105.7,61.9,105.1,61.2,105z"/>
<path class="st11" d="M42.6,130l8.6-10.3c0,0,6-0.9,9.6,1c2.4,1.3,7.5,5.4,7.5,5.4l-2.8,3.9H42.6z"/>
<path class="st11" d="M158,130l-8.6-10.3c0,0-6-0.9-9.6,1c-2.4,1.3-5,6.3-5,6.3l2.8,2.9H158V130z"/>
<path class="st9" d="M79.4,106.2c0.3-0.3,0.3-2.4-1.6-2.5c-0.7-0.1,0.2,3.1,0.2,3.1s0.4-0.4,0.4-0.6
	C78.4,106.2,79.1,106.5,79.4,106.2z"/>
<path class="st9" d="M124.9,104.1c0.7-0.4,1.5-0.5,2.2-0.3c1.2,0.3,1.7,0.6,2.3,1.4c1.6,2,2.6,2.2,2.6,2.2l-4.3,3.3l-1-2.4l-0.6-0.8
	c0,0-0.2-0.3-0.4-0.8C125.3,105.8,124.5,104.3,124.9,104.1z"/>
<path class="st9" d="M124.4,106.2c-0.3-0.3-0.3-2.4,1.6-2.5c0.7-0.1-0.2,3.1-0.2,3.1s-0.4-0.4-0.4-0.6
	C125.4,106.2,124.7,106.5,124.4,106.2z"/>
<polygon class="st0" points="42.6,130 65.5,130 68.3,126.1 65.2,129.7 "/>
<polygon class="st0" points="137.5,130 134.7,127.1 137.9,129.7 158,130 "/>
<circle class="st5" cx="79.5" cy="14.2" r="12.3"/>
<path class="st7" d="M84.7,13.4c0.7,0.4,0.7,1.3,0,1.7L81,17.3l-3.8,2.2c-0.7,0.4-1.5-0.1-1.5-0.9v-4.3V9.9c0-0.8,0.8-1.3,1.5-0.9
	l3.8,2.2L84.7,13.4z"/>
<line class="st12" x1="46.2" y1="49.5" x2="56.9" y2="49.5"/>
<circle class="st5" cx="28.8" cy="48.4" r="17.4"/>
<circle class="st7" cx="28.8" cy="44.1" r="5.8"/>
<path class="st7" d="M37,58.7c0,4.5-16.5,4.5-16.5,0s3.7-8.1,8.3-8.1S37,54.2,37,58.7z"/>
<path class="st7" d="M21.6,47.3L21.6,47.3c-0.5,0-0.9-0.4-0.9-0.9v-3.7c0-0.5,0.4-0.9,0.9-0.9l0,0c0.5,0,0.9,0.4,0.9,0.9v3.7
	C22.5,46.9,22.1,47.3,21.6,47.3z"/>
<path class="st7" d="M36.1,47.3L36.1,47.3c-0.5,0-0.9-0.4-0.9-0.9v-3.7c0-0.5,0.4-0.9,0.9-0.9l0,0c0.5,0,0.9,0.4,0.9,0.9v3.7
	C37,46.9,36.6,47.3,36.1,47.3z"/>
<path class="st13" d="M21.6,47v1.7c0,0.8,0.5,1.4,1.2,1.4H24"/>
<circle class="st7" cx="23.6" cy="50.1" r="0.6"/>
<path class="st14" d="M21.6,44.1c0-4,3.3-7.3,7.3-7.3s7.3,3.3,7.3,7.3"/>
<path class="st12" d="M173.4,54.2V59c0,3.3-2.7,6-6,6h-19.6"/>
<circle class="st5" cx="173.4" cy="36.8" r="17.4"/>
<g>
	<path class="st7" d="M161.7,46.6c0,0.4,0.1,0.7,0.4,1c0.3,0.3,0.6,0.4,1,0.4s0.7-0.1,1-0.4l2.7-2.7c0.1-0.1,0.1-0.2,0.1-0.3
		s0-0.2-0.1-0.3l-0.3-0.3l0.7-0.7c0.9,0.8,2.1,1.2,3.3,1.2c0.9,0,1.8-0.2,2.7-0.7l0,0c0.1-0.1,0.3-0.2,0.5-0.4l0,0l0.1-0.1
		c0.1-0.1,0.1-0.1,0.2-0.2c0.8-0.8,1.3-1.8,1.4-2.8c0.2-1.1,0-2.1-0.5-3.1c-0.2-0.5-0.6-0.9-1-1.4c-0.1-0.1-0.2-0.2-0.4-0.3
		c-0.1-0.1-0.3-0.2-0.4-0.3c-0.1-0.1-0.3-0.2-0.5-0.3c-0.8-0.4-1.8-0.6-2.7-0.5h-0.1c-0.1,0-0.1,0-0.2,0l0,0
		c-1.1,0.2-2.1,0.7-2.8,1.4c-1,1-1.5,2.3-1.5,3.6c0,1.2,0.4,2.3,1.2,3.3l-0.7,0.7l-0.3-0.3c-0.2-0.2-0.5-0.2-0.7,0l-2.6,2.7
		C161.9,45.8,161.7,46.2,161.7,46.6z M166.2,39.3c0-1.1,0.4-2.1,1.2-2.9c0.6-0.6,1.4-1,2.2-1.2l0,0c0.1,0,0.2,0,0.3,0
		c0.7,0,1.5,0.1,2.2,0.4c0.1,0,0.3,0.1,0.4,0.2c0.1,0,0.2,0.1,0.3,0.2c0.1,0.1,0.2,0.2,0.3,0.3c0.3,0.3,0.6,0.7,0.8,1.1
		c0.4,0.7,0.5,1.7,0.4,2.5s-0.5,1.6-1.2,2.3c0,0.1-0.1,0.1-0.2,0.2l-0.2,0.1c-0.1,0-0.2,0.1-0.3,0.2c0,0-0.1,0.1-0.2,0.1l0,0
		c-0.7,0.4-1.4,0.6-2.1,0.6c-1.1,0-2.1-0.5-2.9-1.3C166.6,41.5,166.2,40.4,166.2,39.3z"/>
	<path class="st7" d="M180.9,26.9c0.8,0,1.4,0.6,1.4,1.4v13.1h0.9c0.2,0,0.5-0.2,0.5-0.5V26c0-0.3-0.2-0.5-0.5-0.5H172
		c-0.2,0-0.5,0.2-0.5,0.5v0.9H180.9z"/>
	<path class="st7" d="M174.6,43.6l-0.1,0.1h6.3c0.2,0,0.5-0.2,0.5-0.5V28.4c0-0.3-0.2-0.5-0.5-0.5h-11.2c-0.2,0-0.5,0.2-0.5,0.5v4.9
		c0,0,0,0,0.1,0l0,0l0,0h0.1h0.1c0.1,0,0.2,0,0.3,0s0.3,0,0.5,0c0.9,0,1.9,0.2,2.7,0.6c0.3,0.1,0.5,0.2,0.7,0.4
		c0.2,0.1,0.3,0.2,0.5,0.4c0.2,0.1,0.3,0.3,0.5,0.4c0.5,0.5,0.8,1,1.1,1.6c0,0.1,0,0.1,0.1,0.2h2.2c0.3,0,0.5,0.2,0.5,0.5
		s-0.2,0.5-0.5,0.5h-1.8c0.2,0.6,0.3,1.2,0.2,1.9h1.6c0.3,0,0.5,0.2,0.5,0.5s-0.2,0.5-0.5,0.5h-1.7
		C176.1,41.7,175.5,42.7,174.6,43.6z M178.5,31.6c0,0.3-0.2,0.5-0.5,0.5h-4.7c-0.3,0-0.5-0.2-0.5-0.5s0.2-0.5,0.5-0.5h4.7
		C178.3,31.2,178.5,31.3,178.5,31.6z M178.5,34.4c0,0.3-0.2,0.5-0.5,0.5h-2.8c-0.3,0-0.5-0.2-0.5-0.5s0.2-0.5,0.5-0.5h2.8
		C178.3,34,178.5,34.1,178.5,34.4z"/>
</g>
<line class="st12" x1="28.7" y1="87.7" x2="28.7" y2="65.9"/>
<circle class="st5" cx="28.7" cy="94" r="6.2"/>
<path class="st12" d="M170.4,84v-2c0-2.9-2.3-5.2-5.2-5.2h-17.4"/>
<circle class="st5" cx="170.4" cy="94" r="10"/>
<circle class="st7" cx="25.8" cy="93.9" r="0.9"/>
<circle class="st7" cx="28.8" cy="93.9" r="0.9"/>
<circle class="st7" cx="31.7" cy="93.9" r="0.9"/>
<circle class="st0" cx="28.7" cy="13.4" r="4.2"/>
<circle class="st0" cx="160.6" cy="65" r="2.5"/>
<path class="st7" d="M174,90.5c-0.2-1.8-1.8-3.2-3.6-3.2c-1.9,0-3.4,1.4-3.6,3.2c-1.8,0.2-3.2,1.8-3.2,3.6c0,2,1.6,3.7,3.7,3.7h1.2
	c0.3,0,0.5-0.2,0.5-0.5s-0.2-0.5-0.5-0.5h-1.2c-1.5,0-2.6-1.2-2.6-2.6c0-1.5,1.2-2.6,2.6-2.6c0.3,0,0.5-0.2,0.5-0.5
	c0-1.5,1.2-2.6,2.6-2.6c1.5,0,2.6,1.2,2.6,2.6c0,0.3,0.2,0.5,0.5,0.5c1.5,0,2.6,1.2,2.6,2.6c0,1.5-1.2,2.6-2.6,2.6h-1.2
	c-0.3,0-0.5,0.2-0.5,0.5s0.2,0.5,0.5,0.5h1.2c2,0,3.7-1.6,3.7-3.7C177.2,92.3,175.8,90.7,174,90.5z M172.4,95.1
	c0.2-0.2,0.2-0.5,0-0.7l-1.6-1.6l0,0c0,0-0.1-0.1-0.2-0.1l0,0c-0.1,0-0.1,0-0.2,0l0,0l0,0c-0.1,0-0.1,0-0.2,0l0,0
	c-0.1,0-0.1,0.1-0.2,0.1l-1.6,1.6c-0.2,0.2-0.2,0.5,0,0.7c0.1,0.1,0.2,0.2,0.4,0.2c0.1,0,0.3-0.1,0.4-0.2l0.7-0.7v6.6
	c0,0.3,0.2,0.5,0.5,0.5s0.5-0.2,0.5-0.5v-6.6l0.7,0.7c0.1,0.1,0.2,0.2,0.4,0.2C172.1,95.3,172.3,95.2,172.4,95.1z"/>
<path class="st7" d="M55.1,26.1c0-1.9-1.5-3.4-3.4-3.4c-0.1,0-0.2,0-0.3,0c-0.5-1.2-1.7-2.1-3.1-2.1c-1.4,0-2.6,0.9-3.1,2.1
	c-0.2,0-0.4-0.1-0.5-0.1c-1.9,0-3.4,1.5-3.4,3.4c0,1.7,1.3,3.2,3,3.3l0,0h7.6l0,0C53.7,29.3,55.1,27.9,55.1,26.1z"/>
<path class="st7" d="M162.4,11.1c0-2.2-1.8-3.9-3.9-3.9c-0.1,0-0.2,0-0.3,0c-0.6-1.4-2-2.4-3.6-2.4s-3,1-3.6,2.5
	c-0.2,0-0.4-0.1-0.6-0.1c-2.2,0-3.9,1.8-3.9,3.9c0,2,1.6,3.7,3.5,3.9l0,0h8.8l0,0C160.8,14.9,162.4,13.2,162.4,11.1z"/>
<path class="st7" d="M188.9,69.8c0-1.6-1.3-2.9-2.9-2.9c-0.1,0-0.2,0-0.3,0c-0.4-1-1.5-1.8-2.6-1.8c-1.2,0-2.2,0.7-2.6,1.8
	c-0.2,0-0.3,0-0.5,0c-1.6,0-2.9,1.3-2.9,2.9c0,1.5,1.1,2.7,2.6,2.8l0,0h6.4l0,0C187.7,72.6,188.9,71.4,188.9,69.8z"/>
</svg>
